<svg width="64" height="64" viewBox="0 0 64 64" fill="none" xmlns="http://www.w3.org/2000/svg">
<rect width="64" height="64" rx="12" fill="#1DB954"/>
<path d="M32 12C20.9543 12 12 20.9543 12 32C12 43.0457 20.9543 52 32 52C43.0457 52 52 43.0457 52 32C52 20.9543 43.0457 12 32 12Z" fill="#1DB954"/>
<path d="M45.5 31.5C45.5 31.5 38.5 28.5 32 28.5C25.5 28.5 18.5 31.5 18.5 31.5C17.5 32 17 33 17.5 34C18 35 19 35.5 20 35C20 35 26.5 32 32 32C37.5 32 44 35 44 35C45 35.5 46 35 46.5 34C47 33 46.5 32 45.5 31.5Z" fill="white"/>
<path d="M43 36.5C43 36.5 37.5 34 32 34C26.5 34 21 36.5 21 36.5C20.5 36.5 20 37 20.5 37.5C21 38 21.5 38 22 37.5C22 37.5 27 35 32 35C37 35 42 37.5 42 37.5C42.5 38 43 38 43.5 37.5C44 37 43.5 36.5 43 36.5Z" fill="white"/>
<path d="M40.5 41C40.5 41 36.5 39 32 39C27.5 39 23.5 41 23.5 41C23 41 22.5 41.5 23 42C23.5 42.5 24 42.5 24.5 42C24.5 42 28 40 32 40C36 40 39.5 42 39.5 42C40 42.5 40.5 42.5 41 42C41.5 41.5 41 41 40.5 41Z" fill="white"/>
</svg>
